<svg width="24" height="24" viewBox="0 0 24 24" fill="none" xmlns="http://www.w3.org/2000/svg">
<g id="ChartLineDown">
<path id="Vector" d="M21.75 19.5C21.75 19.6989 21.671 19.8897 21.5303 20.0303C21.3897 20.171 21.1989 20.25 21 20.25H3C2.80109 20.25 2.61032 20.171 2.46967 20.0303C2.32902 19.8897 2.25 19.6989 2.25 19.5V4.5C2.25 4.30109 2.32902 4.11032 2.46967 3.96967C2.61032 3.82902 2.80109 3.75 3 3.75C3.19891 3.75 3.38968 3.82902 3.53033 3.96967C3.67098 4.11032 3.75 4.30109 3.75 4.5V5.68969L9 10.9397L11.4694 8.46937C11.539 8.39964 11.6217 8.34432 11.7128 8.30658C11.8038 8.26884 11.9014 8.24941 12 8.24941C12.0986 8.24941 12.1962 8.26884 12.2872 8.30658C12.3783 8.34432 12.461 8.39964 12.5306 8.46937L18 13.9397V12C18 11.8011 18.079 11.6103 18.2197 11.4697C18.3603 11.329 18.5511 11.25 18.75 11.25C18.9489 11.25 19.1397 11.329 19.2803 11.4697C19.421 11.6103 19.5 11.8011 19.5 12V15.75C19.5014 15.775 19.5014 15.8 19.5 15.825C19.5 15.8353 19.5 15.8447 19.4953 15.855C19.4906 15.8653 19.4953 15.8831 19.4888 15.8981C19.4867 15.9099 19.4839 15.9215 19.4803 15.9328C19.4803 15.945 19.4747 15.9572 19.4709 15.9694C19.4672 15.9816 19.4634 15.9909 19.4597 16.0022L19.4466 16.0387L19.4325 16.0678C19.4269 16.08 19.4212 16.0931 19.4147 16.1053C19.4081 16.1175 19.4044 16.1222 19.3997 16.1316L19.3772 16.1681L19.3575 16.1944L19.3331 16.2272C19.3228 16.2403 19.3106 16.2525 19.2994 16.2647L19.2844 16.2816L19.2684 16.2956C19.256 16.3079 19.2428 16.3195 19.2291 16.3303C19.2195 16.3386 19.2095 16.3465 19.1991 16.3538L19.1709 16.3744L19.1353 16.3959C19.1263 16.4018 19.1169 16.4071 19.1072 16.4119L19.0725 16.4297L19.0406 16.4437L19.0069 16.4559C18.9953 16.4608 18.9834 16.4649 18.9713 16.4681L18.9375 16.4775C18.9244 16.4775 18.9131 16.4841 18.9 16.4859L18.8606 16.4925L18.8278 16.4972C18.8031 16.4986 18.7784 16.4986 18.7537 16.4972H15C14.8011 16.4972 14.6103 16.4182 14.4697 16.2775C14.329 16.1369 14.25 15.9461 14.25 15.7472C14.25 15.5483 14.329 15.3575 14.4697 15.2169C14.6103 15.0762 14.8011 14.9972 15 14.9972H16.9397L12 10.0603L9.53063 12.5306C9.46097 12.6004 9.37825 12.6557 9.28721 12.6934C9.19616 12.7312 9.09856 12.7506 9 12.7506C8.90144 12.7506 8.80384 12.7312 8.71279 12.6934C8.62175 12.6557 8.53903 12.6004 8.46937 12.5306L3.75 7.81031V18.75H21C21.1989 18.75 21.3897 18.829 21.5303 18.9697C21.671 19.1103 21.75 19.3011 21.75 19.5Z" fill="#C92929"/>
</g>
</svg>
