<svg width="40" height="39" viewBox="0 0 40 39" fill="none" xmlns="http://www.w3.org/2000/svg">
<path d="M28.5258 8.37915C28.9435 7.97531 28.9549 7.29405 28.5511 6.87638L27.5661 5.85766C23.2224 1.3651 20.5374 1.31988 16.0448 5.66363L9.67784 11.8197L11.894 14.1119C12.2979 14.5295 12.2864 15.2108 11.8687 15.6146C11.4511 16.0185 10.7698 16.007 10.366 15.5893L8.14976 13.2972L5.85764 15.5134C1.36509 19.8572 1.31987 22.5421 5.66362 27.0347L6.15611 27.544C6.55995 27.9617 7.24121 27.9732 7.65888 27.5693C8.63685 26.6238 10.2198 26.6504 11.1654 27.6284C12.1109 28.6064 12.0843 30.1893 11.1063 31.1349C10.6886 31.5387 10.6772 32.22 11.081 32.6376L11.5735 33.147C15.9172 37.6396 18.6022 37.6848 23.0947 33.341L25.3869 31.1248L23.1707 28.8327C22.7668 28.415 22.7783 27.7338 23.196 27.3299C23.6137 26.9261 24.2949 26.9376 24.6988 27.3552L26.915 29.6474L33.282 23.4912C37.7745 19.1475 37.8197 16.4625 33.476 11.97C33.0721 11.5523 32.3909 11.5408 31.9732 11.9447C30.9952 12.8902 29.4123 12.8636 28.4667 11.8856C27.5212 10.9076 27.5478 9.32473 28.5258 8.37915ZM20.4338 22.9442C20.8376 23.3618 20.8262 24.0431 20.4085 24.4469C19.9908 24.8508 19.3096 24.8393 18.9057 24.4216L14.6309 20.0004C14.2271 19.5827 14.2385 18.9015 14.6562 18.4976C15.0739 18.0938 15.7552 18.1052 16.159 18.5229L20.4338 22.9442Z" fill="#633BBC"/>
</svg>
