<svg width="24" height="24" viewBox="0 0 24 24" fill="none" xmlns="http://www.w3.org/2000/svg">
<g id="MagnifyingGlass">
<path id="Vector" d="M21.5306 19.2401L16.8366 14.547C18.1971 12.9136 18.8755 10.8185 18.7307 8.69766C18.5859 6.5768 17.629 4.5934 16.0591 3.16007C14.4892 1.72674 12.4272 0.953835 10.3019 1.00213C8.17666 1.05043 6.15184 1.91622 4.64867 3.41939C3.1455 4.92256 2.27971 6.94738 2.23141 9.07263C2.18311 11.1979 2.95602 13.26 4.38935 14.8299C5.82268 16.3998 7.80607 17.3566 9.92694 17.5014C12.0478 17.6462 14.1429 16.9678 15.7763 15.6073L20.4694 20.3013C20.5391 20.371 20.6218 20.4263 20.7128 20.464C20.8039 20.5017 20.9015 20.5211 21 20.5211C21.0985 20.5211 21.1961 20.5017 21.2872 20.464C21.3782 20.4263 21.4609 20.371 21.5306 20.3013C21.6003 20.2317 21.6556 20.1489 21.6933 20.0579C21.731 19.9669 21.7504 19.8693 21.7504 19.7707C21.7504 19.6722 21.731 19.5746 21.6933 19.4836C21.6556 19.3925 21.6003 19.3098 21.5306 19.2401ZM3.75 9.27072C3.75 7.9357 4.14588 6.63065 4.88758 5.52062C5.62928 4.41059 6.68349 3.54543 7.91689 3.03454C9.15029 2.52364 10.5075 2.38997 11.8169 2.65042C13.1262 2.91087 14.329 3.55375 15.273 4.49775C16.217 5.44176 16.8599 6.64449 17.1203 7.95386C17.3808 9.26323 17.2471 10.6204 16.7362 11.8538C16.2253 13.0872 15.3601 14.1414 14.2501 14.8831C13.1401 15.6248 11.835 16.0207 10.5 16.0207C8.7104 16.0187 6.99466 15.3069 5.72922 14.0415C4.46378 12.7761 3.75199 11.0603 3.75 9.27072Z" fill="#4583FF"/>
</g>
</svg>
